<svg width="45" height="45" viewBox="0 0 45 45" fill="none" xmlns="http://www.w3.org/2000/svg">
<path fill-rule="evenodd" clip-rule="evenodd" d="M19.7174 17.8851L22.125 0L24.5326 17.8851C24.716 17.9894 24.8919 18.1053 25.0594 18.2317L31.2167 13.3483L26.2796 19.5733C26.2867 19.5848 26.2937 19.5963 26.3007 19.6078L45 22.125L26.3007 24.6422C26.2581 24.7128 26.2137 24.7822 26.1676 24.8504L31.2167 31.2167L24.8504 26.1676C24.7822 26.2137 24.7128 26.2581 24.6422 26.3007L22.125 45L19.6078 26.3007C19.5963 26.2937 19.5848 26.2867 19.5733 26.2797L13.3483 31.2167L18.2317 25.0594C18.1052 24.8919 17.9894 24.7159 17.885 24.5326L0 22.125L17.8851 19.7174C17.9557 19.5932 18.0317 19.4725 18.1126 19.3554L13.3483 13.3483L19.3555 18.1126C19.4725 18.0317 19.5932 17.9557 19.7174 17.8851Z" fill="black"/>
</svg>
